<svg width="16" height="20" viewBox="0 0 16 20" fill="none" xmlns="http://www.w3.org/2000/svg">
<path d="M10.5078 5.85938C9.75392 5.85938 9.14064 5.24606 9.14064 4.49218V0H2.14843C0.963784 0 0 0.963792 0 2.14844V17.8516C0 19.0362 0.963784 20 2.14843 20H13.0859C14.2706 20 15.2344 19.0362 15.2344 17.8516V5.85938H10.5078ZM3.20312 14.0625H6.04374C6.36734 14.0625 6.62966 14.3249 6.62966 14.6484C6.62966 14.972 6.36734 15.2344 6.04374 15.2344H3.20312C2.87953 15.2344 2.61718 14.972 2.61718 14.6484C2.61718 14.3249 2.87953 14.0625 3.20312 14.0625ZM2.61718 11.5234C2.61718 11.1998 2.87953 10.9375 3.20312 10.9375H11.7969C12.1205 10.9375 12.3828 11.1998 12.3828 11.5234C12.3828 11.847 12.1205 12.1094 11.7969 12.1094H3.20312C2.87953 12.1094 2.61718 11.847 2.61718 11.5234ZM11.7969 7.8125C12.1205 7.8125 12.3828 8.07488 12.3828 8.3984C12.3828 8.722 12.1205 8.9844 11.7969 8.9844H3.20312C2.87953 8.9844 2.61718 8.722 2.61718 8.3984C2.61718 8.07488 2.87953 7.8125 3.20312 7.8125H11.7969Z" fill="black"/>
</svg>
