<svg width="20" height="20" viewBox="0 0 20 20" fill="none" xmlns="http://www.w3.org/2000/svg">
<path d="M8.8281 17.6562C9.5644 17.6562 9.89955 17.6282 10.6799 17.4617C11.5353 18.9758 13.16 20 15.0196 20C17.7658 20 20 17.7658 20 15.0196C20 13.5364 19.3457 12.1408 18.2048 11.1906C18.0804 11.0871 17.8957 11.104 17.7922 11.2283C17.6886 11.3527 17.7055 11.5374 17.8298 11.641C18.8366 12.4794 19.414 13.7108 19.414 15.0196C19.414 17.4427 17.4427 19.414 15.0196 19.414C12.5964 19.414 10.625 17.4427 10.625 15.0196C10.625 12.5964 12.5964 10.625 15.0196 10.625C15.7142 10.625 16.3788 10.7825 16.9949 11.0932C17.0748 11.1335 17.1688 11.135 17.25 11.0974C17.3312 11.0597 17.3907 10.987 17.4117 10.9001C17.574 10.2254 17.6562 9.52835 17.6562 8.8281C17.6562 7.44225 17.3441 6.1154 16.7285 4.88449C16.1417 3.71101 15.2824 2.66371 14.2438 1.85582C14.1161 1.75648 13.9321 1.77949 13.8328 1.90719C13.7334 2.03492 13.7564 2.21899 13.8841 2.31832C15.909 3.89336 17.0703 6.2661 17.0703 8.8281C17.0703 9.362 17.0191 9.89385 16.9179 10.4137C16.3171 10.1649 15.6802 10.0391 15.0196 10.0391C14.473 10.0391 13.9468 10.1276 13.4544 10.291V6.94115C13.4544 6.7794 13.3232 6.6482 13.1614 6.6482C12.9996 6.6482 12.8684 6.7794 12.8684 6.94115V10.528C11.196 11.332 10.0391 13.0432 10.0391 15.0196C10.0391 15.6914 10.1727 16.3324 10.4149 16.9177C9.8948 17.019 9.36225 17.0703 8.8281 17.0703C4.28336 17.0703 0.58594 13.3729 0.58594 8.8281C0.58594 4.28336 4.28336 0.58594 8.8281 0.58594C10.3029 0.58594 11.7497 0.97996 13.0124 1.72547C13.1518 1.80773 13.3314 1.76149 13.4136 1.62211C13.4958 1.48278 13.4496 1.30313 13.3103 1.2209C11.9575 0.422188 10.4076 0 8.8281 0C3.96028 0 0 3.96028 0 8.8281C0 13.696 3.96028 17.6562 8.8281 17.6562ZM15.0196 17.6562C13.5657 17.6562 12.3828 16.4735 12.3828 15.0196C12.3828 13.5657 13.5657 12.3828 15.0196 12.3828C16.4735 12.3828 17.6562 13.5657 17.6562 15.0196C17.6562 16.4735 16.4735 17.6562 15.0196 17.6562ZM15.0196 12.9688C13.8888 12.9688 12.9688 13.8887 12.9688 15.0196C12.9688 16.1504 13.8888 17.0703 15.0196 17.0703C16.1503 17.0703 17.0703 16.1504 17.0703 15.0196C17.0703 13.8887 16.1503 12.9688 15.0196 12.9688ZM7.3837 13.2514C7.22185 13.2514 7.09075 13.1202 7.09075 12.9584V4.69785C7.09075 4.53606 7.22185 4.40488 7.3837 4.40488C7.54555 4.40488 7.6767 4.53606 7.6767 4.69785V12.9584C7.6767 13.1202 7.54555 13.2514 7.3837 13.2514ZM5.93935 12.2206C5.7775 12.2206 5.64635 12.0895 5.64635 11.9277V5.72855C5.64635 5.56675 5.7775 5.4356 5.93935 5.4356C6.10115 5.4356 6.2323 5.56675 6.2323 5.72855V11.9277C6.2323 12.0895 6.10115 12.2206 5.93935 12.2206ZM10.2725 11.4595C10.1107 11.4595 9.97955 11.3283 9.97955 11.1665V6.4897C9.97955 6.3279 10.1107 6.1967 10.2725 6.1967C10.4343 6.1967 10.5655 6.3279 10.5655 6.4897V11.1665C10.5655 11.3283 10.4343 11.4595 10.2725 11.4595ZM4.49488 11.4159C4.33304 11.4159 4.20191 11.2847 4.20191 11.1229V6.5333C4.20191 6.3715 4.33304 6.24035 4.49488 6.24035C4.65672 6.24035 4.78785 6.3715 4.78785 6.5333V11.1229C4.78785 11.2848 4.65672 11.4159 4.49488 11.4159ZM8.8281 10.8058C8.6663 10.8058 8.53515 10.6746 8.53515 10.5128V7.14335C8.53515 6.98155 8.6663 6.8504 8.8281 6.8504C8.98995 6.8504 9.1211 6.98155 9.1211 7.14335V10.5128C9.1211 10.6746 8.98995 10.8058 8.8281 10.8058ZM11.7169 10.6007C11.5551 10.6007 11.424 10.4695 11.424 10.3077V7.34845C11.424 7.18665 11.5551 7.05545 11.7169 7.05545C11.8787 7.05545 12.0099 7.18665 12.0099 7.34845V10.3077C12.0099 10.4695 11.8787 10.6007 11.7169 10.6007ZM3.05051 9.72825C2.88867 9.72825 2.75754 9.59705 2.75754 9.43525V8.221C2.75754 8.0592 2.88867 7.928 3.05051 7.928C3.21234 7.928 3.34348 8.0592 3.34348 8.221V9.43525C3.34348 9.59705 3.2123 9.72825 3.05051 9.72825ZM14.6058 9.5881C14.4439 9.5881 14.3127 9.4569 14.3127 9.2951V8.36115C14.3127 8.1994 14.4439 8.0682 14.6058 8.0682C14.7676 8.0682 14.8987 8.1994 14.8987 8.36115V9.2951C14.8987 9.4569 14.7676 9.5881 14.6058 9.5881ZM1.60609 9.38445C1.44426 9.38445 1.31313 9.2533 1.31313 9.0915V8.5648C1.31313 8.403 1.44426 8.27185 1.60609 8.27185C1.76793 8.27185 1.89907 8.403 1.89907 8.5648V9.0915C1.89907 9.2533 1.76793 9.38445 1.60609 9.38445ZM16.0501 9.3663C15.8883 9.3663 15.7572 9.2351 15.7572 9.0733V8.5829C15.7572 8.4211 15.8883 8.2899 16.0501 8.2899C16.212 8.2899 16.3431 8.4211 16.3431 8.5829V9.0733C16.3431 9.2351 16.2119 9.3663 16.0501 9.3663Z" fill="#167EC9"/>
</svg>
