<svg width="15" height="10" viewBox="0 0 15 10" fill="none" xmlns="http://www.w3.org/2000/svg">
<g clip-path="url(#clip0)">
<path d="M8.31648 0H1.6234C0.7272 0.00117549 0.001 0.842207 0 1.88005V8.11993C0.001 9.15773 0.7272 9.9988 1.6234 10H8.31648C9.213 9.9988 9.939 9.15773 9.94002 8.11993V1.88005C9.939 0.842207 9.213 0.00117549 8.31648 0Z" fill="black"/>
<path d="M14.836 0.978961C14.735 0.912135 14.6105 0.913161 14.51 0.981755L10.9205 3.4364C10.8215 3.50409 10.761 3.6272 10.761 3.76027V6.0278C10.761 6.14395 10.807 6.25369 10.8865 6.32492L14.476 9.55248C14.574 9.64041 14.7065 9.65628 14.818 9.59315C14.9295 9.53001 15 9.39895 15 9.25535V1.30547C15 1.17049 14.9375 1.04594 14.836 0.978961Z" fill="black"/>
</g>
<defs>
<clipPath id="clip0">
<rect width="15" height="10" fill="white"/>
</clipPath>
</defs>
</svg>
