<svg width="60" height="60" viewBox="0 0 60 60" fill="none" xmlns="http://www.w3.org/2000/svg">
<path d="M36.3158 59.25C23.6923 59.25 13.4211 49.4928 13.4211 37.5C13.4211 25.5072 23.6923 15.75 36.3158 15.75C48.9393 15.75 59.2106 25.5072 59.2106 37.5C59.2106 49.4928 48.9393 59.25 36.3158 59.25ZM36.3158 17.0625C24.453 17.0625 14.8027 26.2294 14.8027 37.5C14.8027 48.7706 24.453 57.9375 36.3158 57.9375C48.1786 57.9375 57.829 48.7706 57.829 37.5C57.829 26.2294 48.1786 17.0625 36.3158 17.0625Z" fill="black"/>
<path d="M36.3158 59.25C23.6923 59.25 13.4211 49.4928 13.4211 37.5C13.4211 25.5072 23.6923 15.75 36.3158 15.75C48.9393 15.75 59.2106 25.5072 59.2106 37.5C59.2106 49.4928 48.9393 59.25 36.3158 59.25ZM36.3158 17.0625C24.453 17.0625 14.8027 26.2294 14.8027 37.5C14.8027 48.7706 24.453 57.9375 36.3158 57.9375C48.1786 57.9375 57.829 48.7706 57.829 37.5C57.829 26.2294 48.1786 17.0625 36.3158 17.0625Z" stroke="black"/>
<path d="M36.3158 59.25C23.6923 59.25 13.4211 49.4928 13.4211 37.5C13.4211 25.5072 23.6923 15.75 36.3158 15.75C48.9393 15.75 59.2106 25.5072 59.2106 37.5C59.2106 49.4928 48.9393 59.25 36.3158 59.25ZM36.3158 17.0625C24.453 17.0625 14.8027 26.2294 14.8027 37.5C14.8027 48.7706 24.453 57.9375 36.3158 57.9375C48.1786 57.9375 57.829 48.7706 57.829 37.5C57.829 26.2294 48.1786 17.0625 36.3158 17.0625Z" stroke="url(#paint0_linear)"/>
<path d="M22.2032 12.6562H1.48106C0.663164 12.6562 0 12.0262 0 11.25C0 10.4738 0.663164 9.84375 1.48106 9.84375H22.2032C23.0211 9.84375 23.6842 10.4738 23.6842 11.25C23.6842 12.0262 23.0211 12.6562 22.2032 12.6562Z" fill="#3C94D4"/>
<path d="M11.8422 22.5C11.0243 22.5 10.3611 21.87 10.3611 21.0938V1.40625C10.3611 0.63 11.0243 0 11.8422 0C12.66 0 13.3232 0.63 13.3232 1.40625V21.0938C13.3232 21.87 12.66 22.5 11.8422 22.5Z" fill="#3C94D4"/>
<g clip-path="url(#clip0)">
<path d="M47.809 26.1905C46.2208 24.6032 43.6376 24.6032 42.0493 26.1905L25.7317 42.5081C25.724 42.5158 25.7195 42.5253 25.7127 42.5335C25.7032 42.5443 25.695 42.5561 25.6864 42.5679C25.6624 42.6014 25.6439 42.6371 25.6299 42.676C25.6258 42.6878 25.6199 42.6982 25.6167 42.71C25.6154 42.7145 25.6127 42.719 25.6113 42.7235L24.0118 49.443C24.0045 49.4733 24.0027 49.5041 24.0018 49.5344C24.0018 49.5403 24 49.5457 24 49.5516C24.0005 49.6032 24.0118 49.6534 24.0294 49.7018C24.0335 49.7131 24.038 49.7231 24.043 49.7339C24.0652 49.7824 24.0928 49.829 24.1317 49.8679C24.1747 49.9109 24.2253 49.9439 24.2801 49.9665C24.3348 49.9891 24.3932 50.0005 24.4516 50.0005C24.4864 50.0005 24.5217 49.9964 24.5561 49.9882L31.2756 48.3887C31.2878 48.386 31.2986 48.3792 31.3104 48.3751C31.3258 48.3701 31.3403 48.3643 31.3552 48.3575C31.3878 48.3425 31.4181 48.324 31.4462 48.3018C31.457 48.2932 31.4683 48.2869 31.4787 48.2774C31.4824 48.2738 31.4869 48.2719 31.4905 48.2683L47.8086 31.9502C49.3968 30.362 49.3968 27.7783 47.809 26.1905ZM47.1692 26.8303C48.295 27.9566 48.391 29.7249 47.4633 30.9647L43.0348 26.5362C44.2751 25.6086 46.0434 25.7045 47.1692 26.8303ZM44.9294 33.5498L40.4498 29.0701L41.0896 28.4303L45.5692 32.91L44.9294 33.5498ZM26.2448 47.7548C26.0679 47.5778 25.7819 47.5778 25.605 47.7548L25.2624 48.0973L26.4181 43.243L28.419 43.0208L28.1615 45.3385C28.1597 45.3557 28.1661 45.3715 28.1661 45.3882C28.1661 45.4054 28.1597 45.4208 28.1615 45.438C28.1633 45.4529 28.171 45.4652 28.1742 45.4796C28.1796 45.5059 28.1873 45.5299 28.1968 45.5543C28.2086 45.5837 28.2226 45.6104 28.2398 45.6362C28.2538 45.657 28.2679 45.6756 28.2851 45.6937C28.3068 45.7167 28.3303 45.7362 28.3561 45.7543C28.3765 45.7683 28.3959 45.7814 28.4186 45.7923C28.4484 45.8063 28.4796 45.8145 28.5122 45.8222C28.5294 45.8262 28.5434 45.8357 28.5611 45.838C28.5774 45.8398 28.5937 45.8407 28.6104 45.8407H28.6109H28.6113H28.6118H28.6122C28.6285 45.8407 28.6452 45.8398 28.6615 45.838L30.9792 45.5805L30.757 47.5814L25.9023 48.7371L26.2448 48.3946C26.4213 48.2181 26.4213 47.9317 26.2448 47.7548ZM31.9235 45.2756L42.0493 35.1493C42.2262 34.9724 42.2262 34.6864 42.0493 34.5095C41.8724 34.3326 41.5864 34.3326 41.4095 34.5095L31.2837 44.6357L29.124 44.8756L29.3638 42.7158L39.4905 32.59C39.6674 32.4131 39.6674 32.1271 39.4905 31.9502C39.3136 31.7733 39.0276 31.7733 38.8507 31.9502L28.724 42.076L27.2837 42.2362L39.81 29.71L44.2896 34.1896L31.7633 46.7158L31.9235 45.2756ZM46.2091 32.2701L41.7294 27.7905L42.3697 27.1502L46.8493 31.6299L46.2091 32.2701Z" fill="black"/>
</g>
<defs>
<linearGradient id="paint0_linear" x1="36.3158" y1="15" x2="36.3158" y2="60" gradientUnits="userSpaceOnUse">
<stop stop-color="white"/>
<stop offset="1" stop-color="white" stop-opacity="0"/>
</linearGradient>
<clipPath id="clip0">
<rect width="25" height="25" fill="white" transform="translate(24 25)"/>
</clipPath>
</defs>
</svg>
