<svg width="15" height="15" viewBox="0 0 15 15" fill="none" xmlns="http://www.w3.org/2000/svg">
<path d="M14.0625 2H11.7187V0.999998C11.7187 0.44775 11.299 0 10.7812 0C10.2635 0 9.84371 0.44775 9.84371 0.999998V2H5.15625V0.999998C5.15625 0.44775 4.73649 0 4.21875 0C3.70101 0 3.28125 0.44775 3.28125 0.999998V2H0.9375C0.419707 2 0 2.44769 0 3V4.00001H15V3C15 2.44769 14.5803 2 14.0625 2Z" fill="black"/>
<path d="M0 14C0 14.5523 0.419707 15 0.9375 15H14.0625C14.5803 15 15 14.5523 15 14V5H0V14ZM10.3125 7.00001H12.1875V8.99998H10.3125V7.00001ZM6.5625 7.00001H8.4375V8.99998H6.5625V7.00001ZM6.5625 11H8.4375V13H6.5625V11ZM2.8125 7.00001H4.6875V8.99998H2.8125V7.00001ZM2.8125 11H4.6875V13H2.8125V11Z" fill="black"/>
</svg>
