<svg width="15" height="15" viewBox="0 0 15 15" fill="none" xmlns="http://www.w3.org/2000/svg">
<path d="M14.1667 10.4167C13.1292 10.4167 12.125 10.25 11.1917 9.9417C10.9042 9.85002 10.575 9.91668 10.3459 10.1458L8.51256 11.9833C6.15006 10.7833 4.22086 8.8542 3.02086 6.49584L4.85418 4.6542C5.08335 4.425 5.15 4.09584 5.05835 3.80838C4.75004 2.87502 4.58336 1.87086 4.58336 0.83334C4.58332 0.3708 4.2125 0 3.75 0H0.833322C0.375 0 0 0.3708 0 0.83334C0 8.6583 6.3417 15 14.1667 15C14.6292 15 15 14.6292 15 14.1667V11.25C15 10.7875 14.6292 10.4167 14.1667 10.4167Z" fill="black"/>
</svg>
