<svg width="21" height="20" viewBox="0 0 21 20" fill="none" xmlns="http://www.w3.org/2000/svg">
<path d="M19.279 19.4972H1.57101C0.709014 19.4972 0.00799561 18.7962 0.00799561 17.9347C0.00799561 17.4774 0.206993 17.0451 0.554993 16.7472C2.19699 15.3597 3.133 13.341 3.133 11.2034V8.03889C3.133 4.01799 6.40399 0.747192 10.425 0.747192C14.446 0.747192 17.717 4.01799 17.717 8.03889V11.2034C17.717 13.342 18.653 15.3597 20.286 16.7399C20.643 17.0451 20.842 17.4774 20.842 17.9347C20.842 18.7962 20.142 19.4972 19.279 19.4972ZM10.425 1.78889C6.97799 1.78889 4.17499 4.59199 4.17499 8.03889V11.2034C4.17499 13.6493 3.10399 15.9566 1.23599 17.5357C1.11699 17.6378 1.04999 17.7826 1.04999 17.9347C1.04999 18.2222 1.28301 18.4555 1.57101 18.4555H19.279C19.567 18.4555 19.8 18.2222 19.8 17.9347C19.8 17.7826 19.733 17.6378 19.618 17.5389C17.747 15.9566 16.675 13.6482 16.675 11.2034V8.03889C16.675 4.59199 13.872 1.78889 10.425 1.78889Z" fill="black"/>
</svg>
