<svg width="21" height="20" viewBox="0 0 21 20" fill="none" xmlns="http://www.w3.org/2000/svg">
<g clip-path="url(#clip0)">
<path d="M19.6875 2.66666H16.4062V1.33333C16.4062 0.597 15.8186 0 15.0937 0C14.3689 0 13.7812 0.597 13.7812 1.33333V2.66666H7.21875V1.33333C7.21875 0.597 6.63109 0 5.90625 0C5.18141 0 4.59375 0.597 4.59375 1.33333V2.66666H1.3125C0.58759 2.66666 0 3.26358 0 4V5.33334H21V4C21 3.26358 20.4124 2.66666 19.6875 2.66666Z" fill="black"/>
<path d="M0 18.6667C0 19.4031 0.58759 20 1.3125 20H19.6875C20.4124 20 21 19.4031 21 18.6667V6.66669H0V18.6667ZM14.4375 9.33337H17.0625V12H14.4375V9.33337ZM9.1875 9.33337H11.8125V12H9.1875V9.33337ZM9.1875 14.6667H11.8125V17.3334H9.1875V14.6667ZM3.9375 9.33337H6.5625V12H3.9375V9.33337ZM3.9375 14.6667H6.5625V17.3334H3.9375V14.6667Z" fill="black"/>
</g>
<defs>
<clipPath id="clip0">
<rect width="21" height="20" fill="white"/>
</clipPath>
</defs>
</svg>
