<svg width="20" height="20" viewBox="0 0 20 20" fill="none" xmlns="http://www.w3.org/2000/svg">
<g clip-path="url(#clip0)">
<path d="M19.3346 4.58174C18.9354 4.16349 18.384 3.91634 17.7567 3.91634H14.6008V3.87832C14.6008 3.40304 14.4106 2.94676 14.0875 2.64258C13.7643 2.31939 13.327 2.12927 12.8517 2.12927H7.14829C6.65399 2.12927 6.21673 2.31939 5.89354 2.64258C5.57034 2.96577 5.38023 3.40304 5.38023 3.87832V3.91634H2.24335C1.61597 3.91634 1.06464 4.16349 0.665399 4.58174C0.26616 4.98098 0 5.55133 0 6.15969V15.6274C0 16.2547 0.247148 16.8061 0.665399 17.2053C1.06464 17.6046 1.63498 17.8707 2.24335 17.8707H17.7567C18.384 17.8707 18.9354 17.6236 19.3346 17.2053C19.7338 16.8061 20 16.2357 20 15.6274V6.15969C20 5.53231 19.7529 4.98098 19.3346 4.58174ZM19.0114 15.6274H18.9924C18.9924 15.9696 18.8593 16.2738 18.6312 16.5019C18.403 16.73 18.0989 16.8631 17.7567 16.8631H2.24335C1.90114 16.8631 1.59696 16.73 1.36882 16.5019C1.14068 16.2738 1.0076 15.9696 1.0076 15.6274V6.15969C1.0076 5.81749 1.14068 5.5133 1.36882 5.28517C1.59696 5.05703 1.90114 4.92395 2.24335 4.92395H5.91255C6.19772 4.92395 6.42586 4.69581 6.42586 4.41064V3.85931C6.42586 3.65018 6.5019 3.46007 6.63498 3.32699C6.76806 3.19391 6.95818 3.11787 7.1673 3.11787H12.8517C13.0608 3.11787 13.251 3.19391 13.384 3.32699C13.5171 3.46007 13.5932 3.65018 13.5932 3.85931V4.41064C13.5932 4.69581 13.8213 4.92395 14.1065 4.92395H17.7757C18.1179 4.92395 18.4221 5.05703 18.6502 5.28517C18.8783 5.5133 19.0114 5.81749 19.0114 6.15969V15.6274Z" fill="black"/>
<path d="M9.99999 6.21667C8.70721 6.21667 7.52851 6.749 6.692 7.5855C5.83649 8.44101 5.32318 9.60071 5.32318 10.8935C5.32318 12.1863 5.8555 13.365 6.692 14.2015C7.54752 15.057 8.70721 15.5703 9.99999 15.5703C11.2928 15.5703 12.4715 15.038 13.308 14.2015C14.1635 13.346 14.6768 12.1863 14.6768 10.8935C14.6768 9.60071 14.1445 8.422 13.308 7.5855C12.4715 6.749 11.2928 6.21667 9.99999 6.21667ZM12.5855 13.4981C11.9201 14.1444 11.0076 14.5627 9.99999 14.5627C8.99239 14.5627 8.07984 14.1444 7.41444 13.4981C6.74904 12.8327 6.3498 11.9201 6.3498 10.9125C6.3498 9.90489 6.76805 8.99234 7.41444 8.32694C8.07984 7.66154 8.99239 7.2623 9.99999 7.2623C11.0076 7.2623 11.9201 7.68056 12.5855 8.32694C13.2509 8.99234 13.6502 9.90489 13.6502 10.9125C13.6692 11.9201 13.2509 12.8327 12.5855 13.4981Z" fill="black"/>
<path d="M16.7681 8.06087C17.2826 8.06087 17.6997 7.6438 17.6997 7.12931C17.6997 6.61483 17.2826 6.19775 16.7681 6.19775C16.2536 6.19775 15.8365 6.61483 15.8365 7.12931C15.8365 7.6438 16.2536 8.06087 16.7681 8.06087Z" fill="black"/>
</g>
<defs>
<clipPath id="clip0">
<rect width="20" height="20" fill="white"/>
</clipPath>
</defs>
</svg>
