<svg width="17" height="20" viewBox="0 0 17 20" fill="none" xmlns="http://www.w3.org/2000/svg">
<path d="M14.9524 10.158H7.76809C7.61927 10.158 7.47188 10.1198 7.34173 10.0477L5.29872 8.91437C5.08188 8.79406 4.83614 8.73047 4.58813 8.73047H2.8336V1.07422C2.8336 0.804961 3.05262 0.585938 3.32188 0.585938H13.0297C13.299 0.585938 13.518 0.804961 13.518 1.07422V9.20469C13.518 9.36648 13.6491 9.49766 13.811 9.49766C13.9728 9.49766 14.1039 9.36648 14.1039 9.20469V1.07422C14.1039 0.481875 13.622 0 13.0297 0H3.32188C2.72957 0 2.24766 0.481875 2.24766 1.07422V8.73047H1.07422C0.481915 8.73047 0 9.21234 0 9.80469V12.2453C0 12.4071 0.131133 12.5383 0.292969 12.5383C0.454805 12.5383 0.585938 12.4071 0.585938 12.2453V9.80469C0.585938 9.53543 0.804962 9.31641 1.07422 9.31641H4.58813C4.73696 9.31641 4.88438 9.35457 5.0145 9.42676L7.05755 10.5601C7.27442 10.6804 7.52012 10.744 7.76809 10.744H14.9524C15.2216 10.744 15.4406 10.963 15.4406 11.2323V18.9258C15.4406 19.195 15.2216 19.4141 14.9524 19.4141H1.07422C0.804962 19.4141 0.585938 19.195 0.585938 18.9258V13.5063C0.585938 13.3445 0.454805 13.2133 0.292969 13.2133C0.131133 13.2133 0 13.3445 0 13.5063V18.9258C0 19.5181 0.481915 20 1.07422 20H14.9524C15.5447 20 16.0266 19.5181 16.0266 18.9258V11.2322C16.0266 10.6399 15.5447 10.158 14.9524 10.158V10.158Z" fill="black"/>
<path d="M11.3836 6.64453H6.68047C6.51863 6.64453 6.3875 6.7757 6.3875 6.9375C6.3875 7.0993 6.51863 7.23047 6.68047 7.23047H11.3836C11.5454 7.23047 11.6766 7.0993 11.6766 6.9375C11.6766 6.7757 11.5454 6.64453 11.3836 6.64453Z" fill="black"/>
<path d="M11.3836 7.76556H6.68047C6.51863 7.76556 6.3875 7.89674 6.3875 8.05853C6.3875 8.22033 6.51863 8.3515 6.68047 8.3515H11.3836C11.5454 8.3515 11.6766 8.22033 11.6766 8.05853C11.6766 7.89674 11.5454 7.76556 11.3836 7.76556Z" fill="black"/>
<path d="M5.43983 6.64453H5.06483C4.90299 6.64453 4.77186 6.7757 4.77186 6.9375C4.77186 7.0993 4.90299 7.23047 5.06483 7.23047H5.43983C5.60166 7.23047 5.7328 7.0993 5.7328 6.9375C5.7328 6.7757 5.60162 6.64453 5.43983 6.64453Z" fill="black"/>
<path d="M5.43983 7.76556H5.06483C4.90299 7.76556 4.77186 7.89674 4.77186 8.05853C4.77186 8.22033 4.90299 8.3515 5.06483 8.3515H5.43983C5.60166 8.3515 5.7328 8.22033 5.7328 8.05853C5.7328 7.89674 5.60162 7.76556 5.43983 7.76556Z" fill="black"/>
<path d="M9.30316 2.26559C9.30316 1.64395 8.79745 1.13824 8.17581 1.13824C7.55416 1.13824 7.04845 1.64395 7.04845 2.26559C7.04845 2.88723 7.55416 3.39293 8.17581 3.39293C8.79745 3.39293 9.30316 2.88723 9.30316 2.26559ZM7.63436 2.26559C7.63436 1.96703 7.87725 1.72418 8.17577 1.72418C8.47428 1.72418 8.71718 1.96703 8.71718 2.26559C8.71718 2.56414 8.47428 2.80699 8.17577 2.80699C7.87725 2.80699 7.63436 2.56414 7.63436 2.26559Z" fill="black"/>
<path d="M6.51562 4.92342V5.3574C6.51562 5.72897 6.81789 6.03123 7.18945 6.03123H9.16211C9.53367 6.03123 9.83594 5.72897 9.83594 5.3574V4.92342C9.83594 4.32506 9.34914 3.83826 8.75078 3.83826H7.60078C7.00242 3.83826 6.51562 4.32506 6.51562 4.92342ZM7.10156 4.92342C7.10156 4.64814 7.32551 4.4242 7.60078 4.4242H8.75074C9.02602 4.4242 9.24996 4.64814 9.24996 4.92342V5.3574C9.24996 5.40588 9.21051 5.44529 9.16207 5.44529H7.18941C7.14098 5.44529 7.10152 5.40588 7.10152 5.3574V4.92342H7.10156Z" fill="black"/>
<path d="M7.90656 16.7271H8.11996C8.49859 16.7271 8.80668 16.4191 8.80668 16.0404V15.7322H9.11484C9.49348 15.7322 9.80156 15.4242 9.80156 15.0455V14.8321C9.80156 14.4534 9.49348 14.1454 9.11484 14.1454H8.80668V13.8372C8.80668 13.4586 8.49859 13.1505 8.11996 13.1505H7.90656C7.52793 13.1505 7.21984 13.4586 7.21984 13.8372V14.1454H6.91168C6.53305 14.1454 6.22496 14.4534 6.22496 14.8321V15.0455C6.22496 15.4241 6.53305 15.7322 6.91168 15.7322H7.21984V16.0404C7.21984 16.4191 7.52793 16.7271 7.90656 16.7271V16.7271ZM6.91168 15.1463C6.85609 15.1463 6.8109 15.1011 6.8109 15.0455V14.8321C6.8109 14.7765 6.85609 14.7313 6.91168 14.7313H7.35836C7.60504 14.7313 7.80578 14.5306 7.80578 14.2839V13.8372C7.80578 13.7816 7.85098 13.7365 7.90656 13.7365H8.11996C8.17555 13.7365 8.22074 13.7816 8.22074 13.8372V14.2839C8.22074 14.5306 8.42148 14.7313 8.66816 14.7313H9.11484C9.17043 14.7313 9.21562 14.7765 9.21562 14.8321V15.0455C9.21562 15.1011 9.17043 15.1463 9.11484 15.1463H8.66816C8.42148 15.1463 8.22074 15.347 8.22074 15.5937V16.0404C8.22074 16.0959 8.17555 16.1412 8.11996 16.1412H7.90656C7.85098 16.1412 7.80578 16.096 7.80578 16.0404V15.5937C7.80578 15.347 7.60504 15.1463 7.35836 15.1463H6.91168Z" fill="black"/>
<path d="M9.20031 12.1292C8.82414 11.9701 8.42476 11.8894 8.01324 11.8894C6.33183 11.8894 4.96391 13.2574 4.96391 14.9388C4.96391 16.6202 6.33187 17.9881 8.01324 17.9881C9.69469 17.9881 11.0626 16.6202 11.0626 14.9388C11.0626 14.1425 10.7575 13.3891 10.2037 12.8173C10.0912 12.7011 9.90566 12.6981 9.78945 12.8107C9.67324 12.9233 9.67027 13.1087 9.78285 13.225C10.2303 13.6869 10.4767 14.2955 10.4767 14.9388C10.4767 16.2971 9.3716 17.4022 8.01328 17.4022C6.65496 17.4022 5.54988 16.2971 5.54988 14.9388C5.54988 13.5805 6.65496 12.4753 8.01328 12.4753C8.34598 12.4753 8.66852 12.5405 8.97207 12.6688C9.12117 12.7318 9.29305 12.6621 9.35601 12.5131C9.41906 12.3641 9.34933 12.1922 9.20031 12.1292V12.1292Z" fill="black"/>
</svg>
