<svg width="20" height="20" viewBox="0 0 20 20" fill="none" xmlns="http://www.w3.org/2000/svg">
<path d="M9.99975 0C4.4771 0 0 4.4774 0 9.9998C0 15.5222 4.4771 20 9.99975 20C15.5224 20 20 15.5224 20 9.9998C20 4.47713 15.5224 0 9.99975 0ZM14.7999 8.90655L8.22865 15.4774L8.229 15.4776C8.2267 15.4799 8.2245 15.4815 8.22225 15.4838L8.182 15.524L8.1799 15.5218C7.8092 15.867 7.32885 16.0392 6.8316 16.0392C6.2385 16.0392 5.6233 15.7974 5.1473 15.3214C4.72403 14.8984 4.47023 14.352 4.43269 13.7828C4.39549 13.2198 4.57377 12.7004 4.9317 12.3072L4.9281 12.3036L11.4221 5.8096C11.9706 5.261 12.9027 5.3014 13.5006 5.89915C13.7809 6.1794 13.9495 6.54285 13.9746 6.9222C14.0012 7.32195 13.8608 7.70655 13.5895 7.97745L8.30305 13.2644L7.5694 12.5309L12.8561 7.2438C12.9336 7.16635 12.9442 7.0636 12.9394 6.99135C12.9309 6.8648 12.8679 6.73405 12.7668 6.63285C12.5768 6.44285 12.2969 6.40205 12.1556 6.54345L5.72525 12.9736L5.72545 12.9739C5.5399 13.1592 5.44845 13.4222 5.46785 13.7144C5.4889 14.0324 5.63555 14.3426 5.8809 14.5879C6.368 15.0748 7.09025 15.1456 7.4929 14.7464L14.0668 8.173C14.373 7.8666 14.5245 7.43595 14.493 6.9606C14.4598 6.45935 14.2303 5.97225 13.8469 5.58895C13.0736 4.81587 11.9147 4.71713 11.2628 5.36865L5.82415 10.807L5.0905 10.0736L10.5292 4.635C11.5853 3.57907 13.4027 3.6776 14.5803 4.85513C15.1417 5.4162 15.4782 6.13945 15.5282 6.8918C15.5796 7.66995 15.3211 8.3854 14.7999 8.90655Z" fill="black"/>
</svg>
