<svg width="55" height="50" viewBox="0 0 55 50" fill="none" xmlns="http://www.w3.org/2000/svg">
<path d="M22.334 8.37775C15.0152 8.37775 9.0752 15.1277 9.0752 23.4445C9.0752 31.7614 15.0152 38.5113 22.334 38.5113C29.6528 38.5113 35.5928 31.7614 35.5928 23.4445C35.5928 15.1277 29.6528 8.37775 22.334 8.37775ZM22.334 37.0046C15.7576 37.0046 10.4011 30.9176 10.4011 23.4445C10.4011 15.9714 15.7576 9.8844 22.334 9.8844C28.9104 9.8844 34.2669 15.9714 34.2669 23.4445C34.2669 30.9176 28.9104 37.0046 22.334 37.0046Z" fill="#213D5B"/>
<path d="M9.5199 23.1263C9.5199 21.4365 9.81439 19.8284 10.4033 18.3021C10.9923 16.7765 11.7978 15.4501 12.82 14.3232C13.8427 13.1962 15.0824 12.2985 16.5389 11.6299C17.9955 10.9606 19.5499 10.626 21.2022 10.626C23.4541 10.626 25.4607 11.1747 27.2219 12.2722C28.983 13.3696 30.3595 14.8633 31.3512 16.7531L26.935 19.6762C26.4087 18.5255 25.6547 17.6188 24.6732 16.9559C23.6922 16.2925 22.5352 15.9607 21.2022 15.9607C19.3327 15.9607 17.7963 16.6444 16.5931 18.0117C15.3898 19.3791 14.7882 21.0839 14.7882 23.1263C14.7882 24.418 15.0567 25.6212 15.5937 26.736C16.1308 27.8514 16.8926 28.7495 17.8793 29.4303C18.8659 30.1111 19.9735 30.4515 21.2022 30.4515C22.4833 30.4515 23.6118 30.1168 24.5877 29.4476C25.5642 28.7783 26.326 27.8745 26.8732 26.736L31.2894 29.6236C30.2769 31.5486 28.8925 33.0951 27.1364 34.2631C25.3809 35.4311 23.4028 36.0151 21.2022 36.0151C19.5392 36.0151 17.9822 35.6804 16.5313 35.0112C15.0798 34.3419 13.8427 33.4352 12.82 32.2909C11.7978 31.1467 10.9923 29.7822 10.4033 28.1976C9.81439 26.6129 9.5199 24.9225 9.5199 23.1263Z" fill="#213D5B"/>
<path d="M32.9612 23.2506C32.9612 24.2628 32.6073 25.2334 31.9775 25.9491C31.3477 26.6648 30.4935 27.0669 29.6028 27.0669C28.7122 27.0669 27.8579 26.6648 27.2281 25.9491C26.5983 25.2334 26.2445 24.2628 26.2445 23.2506C26.2445 22.2385 26.5983 21.2678 27.2281 20.5521C27.8579 19.8364 28.7122 19.4344 29.6028 19.4344C30.4935 19.4344 31.3477 19.8364 31.9775 20.5521C32.6073 21.2678 32.9612 22.2385 32.9612 23.2506Z" fill="#3C94D4"/>
</svg>
