<svg width="20" height="16" viewBox="0 0 20 16" fill="none" xmlns="http://www.w3.org/2000/svg">
<path d="M19.3346 2.45247C18.9354 2.03422 18.384 1.78707 17.7567 1.78707H14.6008V1.74905C14.6008 1.27377 14.4106 0.81749 14.0875 0.51331C13.7643 0.19012 13.327 0 12.8517 0H7.14829C6.65399 0 6.21673 0.19012 5.89354 0.51331C5.57034 0.8365 5.38023 1.27377 5.38023 1.74905V1.78707H2.24335C1.61597 1.78707 1.06464 2.03422 0.665399 2.45247C0.26616 2.85171 0 3.42206 0 4.03042V13.4981C0 14.1254 0.247148 14.6768 0.665399 15.076C1.06464 15.4753 1.63498 15.7414 2.24335 15.7414H17.7567C18.384 15.7414 18.9354 15.4943 19.3346 15.076C19.7338 14.6768 20 14.1064 20 13.4981V4.03042C20 3.40304 19.7529 2.85171 19.3346 2.45247ZM19.0114 13.4981H18.9924C18.9924 13.8403 18.8593 14.1445 18.6312 14.3726C18.403 14.6007 18.0989 14.7338 17.7567 14.7338H2.24335C1.90114 14.7338 1.59696 14.6007 1.36882 14.3726C1.14068 14.1445 1.0076 13.8403 1.0076 13.4981V4.03042C1.0076 3.68822 1.14068 3.38403 1.36882 3.1559C1.59696 2.92776 1.90114 2.79468 2.24335 2.79468H5.91255C6.19772 2.79468 6.42586 2.56654 6.42586 2.28137V1.73004C6.42586 1.52091 6.5019 1.3308 6.63498 1.19772C6.76806 1.06464 6.95818 0.9886 7.1673 0.9886H12.8517C13.0608 0.9886 13.251 1.06464 13.384 1.19772C13.5171 1.3308 13.5932 1.52091 13.5932 1.73004V2.28137C13.5932 2.56654 13.8213 2.79468 14.1065 2.79468H17.7757C18.1179 2.79468 18.4221 2.92776 18.6502 3.1559C18.8783 3.38403 19.0114 3.68822 19.0114 4.03042V13.4981Z" fill="black"/>
<path d="M9.99999 4.0874C8.70721 4.0874 7.52851 4.61973 6.692 5.45623C5.83649 6.31174 5.32318 7.47144 5.32318 8.76423C5.32318 10.057 5.8555 11.2357 6.692 12.0722C7.54752 12.9277 8.70721 13.441 9.99999 13.441C11.2928 13.441 12.4715 12.9087 13.308 12.0722C14.1635 11.2167 14.6768 10.057 14.6768 8.76423C14.6768 7.47144 14.1445 6.29273 13.308 5.45623C12.4715 4.61973 11.2928 4.0874 9.99999 4.0874ZM12.5855 11.3688C11.9201 12.0151 11.0076 12.4334 9.99999 12.4334C8.99239 12.4334 8.07984 12.0151 7.41444 11.3688C6.74904 10.7034 6.3498 9.79083 6.3498 8.78323C6.3498 7.77562 6.76805 6.86307 7.41444 6.19767C8.07984 5.53227 8.99239 5.13303 9.99999 5.13303C11.0076 5.13303 11.9201 5.55129 12.5855 6.19767C13.2509 6.86307 13.6502 7.77562 13.6502 8.78323C13.6692 9.79083 13.2509 10.7034 12.5855 11.3688Z" fill="black"/>
<path d="M16.7681 5.9316C17.2826 5.9316 17.6997 5.51453 17.6997 5.00004C17.6997 4.48556 17.2826 4.06848 16.7681 4.06848C16.2536 4.06848 15.8365 4.48556 15.8365 5.00004C15.8365 5.51453 16.2536 5.9316 16.7681 5.9316Z" fill="black"/>
</svg>
